<svg xmlns="http://www.w3.org/2000/svg"
  width="112" height="112"
  viewBox="0 0 112 112"
  fill="none" color="#0b6914" shape-rendering="geometricPrecision">
  <g stroke="currentColor" stroke-width="3.2" stroke-linecap="round" stroke-linejoin="round">
    <path d="M 56.50 30.50 L 55.50 54.50"/>
    <path d="M 35.50 61.50 C 36.62 60.75 42.00 56.25 44.50 55.50 C 47.00 54.75 54.12 55.50 55.50 55.50"/>
    <path d="M 55.50 64.50 L 54.50 75.50"/>
    <path d="M 55.50 54.50 C 57.38 54.75 68.00 55.88 70.50 56.50 C 73.00 57.12 74.88 59.12 75.50 59.50"/>
    <path d="M 55.50 54.50 L 55.50 55.50"/>
    <path d="M 55.50 55.50 L 54.50 60.50"/>
    <path d="M 18.50 66.50 C 18.50 63.12 18.88 52.75 19.50 48.50 C 20.12 44.25 22.25 35.75 23.50 32.50 C 24.75 29.25 27.62 24.75 29.50 22.50 C 31.38 20.25 35.75 16.12 38.50 14.50 C 41.25 12.88 48.25 10.00 51.50 9.50 C 54.75 9.00 61.38 9.62 64.50 10.50 C 67.62 11.38 73.88 14.38 76.50 16.50 C 79.12 18.62 83.62 23.75 85.50 27.50 C 87.38 31.25 90.75 41.50 91.50 46.50 C 92.25 51.50 92.12 63.12 91.50 67.50 C 90.88 71.88 87.62 79.00 86.50 81.50 C 85.38 84.00 84.12 85.75 82.50 87.50 C 80.88 89.25 76.25 93.88 73.50 95.50 C 70.75 97.12 63.50 99.88 60.50 100.50 C 57.50 101.12 52.50 101.12 49.50 100.50 C 46.50 99.88 39.88 97.75 36.50 95.50 C 33.12 93.25 24.62 85.00 22.50 82.50 C 20.38 80.00 20.00 77.50 19.50 75.50 C 19.00 73.50 18.50 69.88 18.50 66.50 Z"/>
  </g>
  <g fill="currentColor"><circle cx="54.50" cy="60.50" r="1.6"/>
    <circle cx="55.50" cy="55.50" r="1.6"/>
    <circle cx="75.50" cy="59.50" r="1.6"/>
    <circle cx="55.50" cy="64.50" r="1.6"/>
    <circle cx="35.50" cy="61.50" r="1.6"/>
    <circle cx="56.50" cy="30.50" r="1.6"/>
    <circle cx="54.50" cy="75.50" r="1.6"/>
    <circle cx="55.50" cy="54.50" r="1.6"/></g>
</svg>
