<svg xmlns="http://www.w3.org/2000/svg"
  width="112" height="194"
  viewBox="0 0 112 194"
  fill="none" color="#0b6914" shape-rendering="geometricPrecision">
  <g stroke="currentColor" stroke-width="3.2" stroke-linecap="round" stroke-linejoin="round">
    <path d="M 74.00 24.50 L 74.00 21.50"/>
    <path d="M 74.00 21.50 C 72.88 20.50 67.38 14.88 65.00 13.50 C 62.62 12.12 58.12 10.12 55.00 10.50 C 51.88 10.88 43.62 14.50 40.00 16.50 C 36.38 18.50 28.12 24.25 26.00 26.50 C 23.88 28.75 23.38 31.75 23.00 34.50 C 22.62 37.25 22.00 42.75 23.00 48.50 C 24.00 54.25 30.00 76.50 31.00 80.50"/>
    <path d="M 74.00 21.50 C 74.50 21.50 76.88 21.12 78.00 21.50 C 79.12 21.88 81.88 23.12 83.00 24.50 C 84.12 25.88 86.62 28.75 87.00 32.50 C 87.38 36.25 86.88 48.75 86.00 54.50 C 85.12 60.25 80.75 75.50 80.00 78.50"/>
    <path d="M 31.00 80.50 C 31.62 80.50 35.12 80.25 36.00 80.50 C 36.88 80.75 36.25 81.88 38.00 82.50 C 39.75 83.12 47.00 85.12 50.00 85.50 C 53.00 85.88 58.25 86.38 62.00 85.50 C 65.75 84.62 77.75 79.38 80.00 78.50"/>
    <path d="M 31.00 80.50 C 31.50 86.75 33.88 120.88 35.00 130.50 C 36.12 140.12 38.88 152.50 40.00 157.50 C 41.12 162.50 42.88 167.75 44.00 170.50 C 45.12 173.25 48.12 178.12 49.00 179.50 C 49.88 180.88 49.75 181.25 51.00 181.50 C 52.25 181.75 57.25 182.50 59.00 181.50 C 60.75 180.50 63.25 178.12 65.00 173.50 C 66.75 168.88 71.25 153.25 73.00 144.50 C 74.75 135.75 78.12 111.75 79.00 103.50 C 79.88 95.25 79.88 81.62 80.00 78.50"/>
  </g>
  <g fill="currentColor"><circle cx="31.00" cy="80.50" r="1.6"/>
    <circle cx="74.00" cy="21.50" r="1.6"/>
    <circle cx="74.00" cy="24.50" r="1.6"/>
    <circle cx="80.00" cy="78.50" r="1.6"/></g>
</svg>
