<svg xmlns="http://www.w3.org/2000/svg"
  width="112" height="112"
  viewBox="0 0 112 112"
  fill="none" color="#0b6914" shape-rendering="geometricPrecision">
  <g stroke="currentColor" stroke-width="3.2" stroke-linecap="round" stroke-linejoin="round">
    <path d="M 57.50 67.00 L 57.50 46.00"/>
    <path d="M 57.50 46.00 L 56.50 45.00"/>
    <path d="M 57.50 46.00 C 59.38 46.25 70.00 48.12 72.50 48.00 C 75.00 47.88 76.88 45.38 77.50 45.00"/>
    <path d="M 37.50 45.00 L 56.50 45.00"/>
    <path d="M 56.50 45.00 L 56.50 24.00"/>
    <path d="M 24.50 69.00 C 23.75 66.38 21.12 59.75 20.50 56.00 C 19.88 52.25 19.12 42.62 19.50 39.00 C 19.88 35.38 21.88 29.62 23.50 27.00 C 25.12 24.38 28.88 20.25 32.50 18.00 C 36.12 15.75 49.00 10.12 52.50 9.00 C 56.00 7.88 57.50 8.12 60.50 9.00 C 63.50 9.88 73.38 14.12 76.50 16.00 C 79.62 17.88 83.75 21.50 85.50 24.00 C 87.25 26.50 90.00 31.50 90.50 36.00 C 91.00 40.50 90.38 54.38 89.50 60.00 C 88.62 65.62 84.88 77.25 83.50 81.00 C 82.12 84.75 80.00 87.88 78.50 90.00 C 77.00 92.12 73.62 96.50 71.50 98.00 C 69.38 99.50 63.75 101.50 61.50 102.00 C 59.25 102.50 55.62 102.38 53.50 102.00 C 51.38 101.62 47.25 101.00 44.50 99.00 C 41.75 97.00 33.75 88.75 31.50 86.00 C 29.25 83.25 27.38 79.12 26.50 77.00 C 25.62 74.88 25.25 71.62 24.50 69.00 Z"/>
  </g>
  <g fill="currentColor"><circle cx="56.50" cy="45.00" r="1.6"/>
    <circle cx="57.50" cy="67.00" r="1.6"/>
    <circle cx="37.50" cy="45.00" r="1.6"/>
    <circle cx="56.50" cy="24.00" r="1.6"/>
    <circle cx="57.50" cy="46.00" r="1.6"/>
    <circle cx="77.50" cy="45.00" r="1.6"/></g>
</svg>
