<svg xmlns="http://www.w3.org/2000/svg"
  width="112" height="112"
  viewBox="0 0 112 112"
  fill="none" color="#0b6914" shape-rendering="geometricPrecision">
  <g stroke="currentColor" stroke-width="3.2" stroke-linecap="round" stroke-linejoin="round">
    <path d="M 56.50 66.50 L 55.50 41.50"/>
    <path d="M 46.50 39.50 L 55.50 41.50"/>
    <path d="M 55.50 41.50 L 67.50 40.50"/>
    <path d="M 80.50 76.50 C 81.88 73.62 82.50 73.50 83.50 69.50 C 84.50 65.50 87.88 49.38 88.50 44.50 C 89.12 39.62 88.75 32.75 88.50 30.50 C 88.25 28.25 87.75 27.88 86.50 26.50 C 85.25 25.12 81.75 21.50 78.50 19.50 C 75.25 17.50 64.38 11.38 60.50 10.50 C 56.62 9.62 51.12 11.25 47.50 12.50 C 43.88 13.75 34.38 18.50 31.50 20.50 C 28.62 22.50 25.62 26.50 24.50 28.50 C 23.38 30.50 22.75 34.12 22.50 36.50 C 22.25 38.88 21.88 43.12 22.50 47.50 C 23.12 51.88 25.75 66.25 27.50 71.50 C 29.25 76.75 34.00 86.12 36.50 89.50 C 39.00 92.88 44.25 97.25 47.50 98.50 C 50.75 99.75 59.38 100.25 62.50 99.50 C 65.62 98.75 70.25 95.38 72.50 92.50 C 74.75 89.62 79.12 79.38 80.50 76.50 Z"/>
  </g>
  <g fill="currentColor"><circle cx="56.50" cy="66.50" r="1.6"/>
    <circle cx="46.50" cy="39.50" r="1.6"/>
    <circle cx="55.50" cy="41.50" r="1.6"/>
    <circle cx="67.50" cy="40.50" r="1.6"/></g>
</svg>
