<svg xmlns="http://www.w3.org/2000/svg"
  width="112" height="194"
  viewBox="0 0 112 194"
  fill="none" color="#0b6914" shape-rendering="geometricPrecision">
  <g stroke="currentColor" stroke-width="3.2" stroke-linecap="round" stroke-linejoin="round">
    <path d="M 31.50 104.00 C 31.38 101.88 29.75 95.25 30.50 87.00 C 31.25 78.75 35.75 46.62 37.50 38.00 C 39.25 29.38 42.75 21.50 44.50 18.00 C 46.25 14.50 50.25 11.12 51.50 10.00 C 52.75 8.88 53.25 9.00 54.50 9.00 C 55.75 9.00 60.00 9.25 61.50 10.00 C 63.00 10.75 65.12 12.00 66.50 15.00 C 67.88 18.00 71.25 27.38 72.50 34.00 C 73.75 40.62 76.00 59.88 76.50 68.00 C 77.00 76.12 76.50 95.12 76.50 99.00"/>
    <path d="M 31.50 104.00 C 32.62 103.12 37.75 98.38 40.50 97.00 C 43.25 95.62 50.50 93.38 53.50 93.00 C 56.50 92.62 62.00 93.25 64.50 94.00 C 67.00 94.75 72.00 98.38 73.50 99.00 C 75.00 99.62 76.12 99.00 76.50 99.00"/>
    <path d="M 31.50 104.00 C 30.62 108.12 25.50 130.62 24.50 137.00 C 23.50 143.38 23.38 151.62 23.50 155.00 C 23.62 158.38 24.75 162.12 25.50 164.00 C 26.25 165.88 27.12 167.88 29.50 170.00 C 31.88 172.12 42.12 179.38 44.50 181.00 C 46.88 182.62 46.88 182.75 48.50 183.00 C 50.12 183.25 53.38 185.12 57.50 183.00 C 61.62 180.88 77.88 169.25 81.50 166.00 C 85.12 162.75 86.00 161.62 86.50 157.00 C 87.00 152.38 86.75 136.25 85.50 129.00 C 84.25 121.75 77.62 102.75 76.50 99.00"/>
  </g>
  <g fill="currentColor"><circle cx="31.50" cy="104.00" r="1.6"/>
    <circle cx="76.50" cy="99.00" r="1.6"/></g>
</svg>
