<svg xmlns="http://www.w3.org/2000/svg"
  width="112" height="194"
  viewBox="0 0 112 194"
  fill="none" color="#0b6914" shape-rendering="geometricPrecision">
  <g stroke="currentColor" stroke-width="3.2" stroke-linecap="round" stroke-linejoin="round">
    <path d="M 31.00 103.00 C 31.00 99.75 30.00 85.50 31.00 77.00 C 32.00 68.50 37.38 41.62 39.00 35.00 C 40.62 28.38 42.50 26.25 44.00 24.00 C 45.50 21.75 49.50 18.12 51.00 17.00 C 52.50 15.88 54.38 15.12 56.00 15.00 C 57.62 14.88 62.62 15.50 64.00 16.00 C 65.38 16.50 66.12 17.38 67.00 19.00 C 67.88 20.62 69.25 21.50 71.00 29.00 C 72.75 36.50 79.62 69.88 81.00 79.00 C 82.38 88.12 81.88 99.12 82.00 102.00"/>
    <path d="M 31.00 103.00 C 32.00 102.38 36.50 99.00 39.00 98.00 C 41.50 97.00 47.50 95.25 51.00 95.00 C 54.50 94.75 63.12 95.12 67.00 96.00 C 70.88 96.88 80.12 101.25 82.00 102.00"/>
    <path d="M 31.00 103.00 C 30.50 104.62 28.00 111.50 27.00 116.00 C 26.00 120.50 23.25 134.00 23.00 139.00 C 22.75 144.00 24.12 153.00 25.00 156.00 C 25.88 159.00 28.88 162.00 30.00 163.00 C 31.12 164.00 32.00 162.50 34.00 164.00 C 36.00 165.50 44.00 173.38 46.00 175.00 C 48.00 176.62 48.38 176.75 50.00 177.00 C 51.62 177.25 56.00 178.25 59.00 177.00 C 62.00 175.75 71.38 168.50 74.00 167.00 C 76.62 165.50 78.50 166.25 80.00 165.00 C 81.50 163.75 85.12 162.25 86.00 157.00 C 86.88 151.75 87.50 129.88 87.00 123.00 C 86.50 116.12 82.62 104.62 82.00 102.00"/>
  </g>
  <g fill="currentColor"><circle cx="82.00" cy="102.00" r="1.6"/>
    <circle cx="31.00" cy="103.00" r="1.6"/></g>
</svg>
